<svg width="138" height="30" viewBox="0 0 138 30" fill="none" xmlns="http://www.w3.org/2000/svg">
<path d="M8.05076 9.52479H5.21632L4.28739 13.4941H0L3.02499 0.444257H10.2897C12.0841 0.444257 13.3624 0.75842 14.1246 1.38675C14.6803 1.87008 14.9582 2.48632 14.9582 3.23548C14.9582 3.48923 14.9265 3.75506 14.8629 4.03297L14.3866 6.08107C14.1484 7.08398 13.4497 7.91168 12.2905 8.56417C11.1313 9.20458 9.71807 9.52479 8.05076 9.52479ZM8.78914 3.27173H6.64545L5.85943 6.69732H7.9793C9.28139 6.69732 10.0357 6.25628 10.2421 5.37421L10.4088 4.63109C10.4406 4.52234 10.4565 4.37734 10.4565 4.19609C10.4565 4.01484 10.3374 3.81547 10.0992 3.59797C9.86099 3.38048 9.42431 3.27173 8.78914 3.27173Z" fill="url(#paint0_linear_2398_3167)"/>
<path d="M24.6452 0.444257C26.4554 0.444257 27.7416 0.746337 28.5039 1.3505C29.0755 1.80966 29.3613 2.38965 29.3613 3.09048C29.3613 3.33214 29.3296 3.58589 29.2661 3.85172L28.9326 5.26546C28.742 6.05086 28.4086 6.68523 27.9322 7.16856C27.4717 7.65189 26.9556 7.99626 26.384 8.20167L28.5515 13.4941H23.7401L21.7393 8.61855H20.2625L19.286 13.4941H14.7128L17.7378 0.444257H24.6452ZM23.1446 3.27173H21.3582L20.7389 6.42544H22.4062C23.2478 6.42544 23.8512 6.2744 24.2165 5.97232C24.5817 5.65816 24.7643 5.24733 24.7643 4.73984C24.7643 3.7611 24.2244 3.27173 23.1446 3.27173Z" fill="url(#paint1_linear_2398_3167)"/>
<path d="M39.0167 0.317383C42.8436 0.317383 44.757 1.50758 44.757 3.88797C44.757 4.28672 44.7014 4.71567 44.5903 5.17483L43.7566 8.79979C43.3755 10.4794 42.5498 11.7239 41.2795 12.5335C40.0091 13.3431 38.2227 13.7479 35.9202 13.7479C33.6178 13.7479 32.014 13.3431 31.1088 12.5335C30.4896 11.9777 30.1799 11.2104 30.1799 10.2317C30.1799 9.79666 30.2434 9.31937 30.3705 8.79979L31.2041 5.17483C31.9504 1.93653 34.5546 0.317383 39.0167 0.317383ZM36.5634 10.9385C37.3573 10.9385 37.9925 10.7814 38.4689 10.4673C38.9452 10.1531 39.2787 9.57312 39.4692 8.72729L40.2791 5.24733C40.3267 5.00567 40.3505 4.78817 40.3505 4.59484C40.3505 3.6161 39.6995 3.12673 38.3974 3.12673C36.7618 3.15089 35.7853 3.85776 35.4677 5.24733L34.6578 8.72729C34.5943 9.02938 34.5626 9.34354 34.5626 9.66979C34.5626 10.5156 35.2295 10.9385 36.5634 10.9385Z" fill="url(#paint2_linear_2398_3167)"/>
<path d="M50.3559 13.7479C46.529 13.7479 44.6156 12.6906 44.6156 10.576C44.6156 10.2498 44.6632 9.89937 44.7585 9.52479L45.0681 8.18355H49.3555L49.2126 8.78167C49.1491 9.08375 49.1173 9.39187 49.1173 9.70603C49.1173 10.0202 49.2206 10.28 49.427 10.4854C49.7446 10.7875 50.2686 10.9385 50.999 10.9385C51.7295 10.9385 52.317 10.7875 52.7616 10.4854C53.2221 10.1833 53.5476 9.62749 53.7382 8.81792L55.6913 0.426132H59.9549L57.9541 9.07167C57.5889 10.6787 56.7949 11.8629 55.5722 12.6241C54.3495 13.3733 52.6108 13.7479 50.3559 13.7479Z" fill="url(#paint3_linear_2398_3167)"/>
<path d="M71.6222 13.4941H59.6652L62.6902 0.444257H74.6472L73.9803 3.27173H66.3106L65.7628 5.71858H72.0986L71.4317 8.54605H65.0959L64.6195 10.6666H72.2891L71.6222 13.4941Z" fill="url(#paint4_linear_2398_3167)"/>
<path d="M79.9156 13.7479C77.6449 13.7479 76.0729 13.3733 75.1995 12.6241C74.5961 12.0925 74.2944 11.3494 74.2944 10.3948C74.2944 9.98395 74.35 9.54291 74.4611 9.07167L75.4377 4.90296C76.1523 1.84591 78.7326 0.317383 83.1788 0.317383C85.0208 0.317383 86.4182 0.619463 87.3709 1.22362C88.3237 1.8157 88.8 2.63132 88.8 3.67047C88.8 4.1538 88.7048 4.63713 88.5142 5.12046C88.3395 5.5917 88.1649 5.94212 87.9902 6.1717L87.7282 6.53419H83.5123C84.0363 6.07503 84.2983 5.42254 84.2983 4.57671C84.2983 4.12963 84.1474 3.77922 83.8457 3.52547C83.544 3.25964 83.0994 3.12673 82.5119 3.12673C80.9081 3.12673 79.9553 3.80339 79.6536 5.15671L78.82 8.81792C78.7406 9.13208 78.7009 9.4402 78.7009 9.74228C78.7009 10.5398 79.3281 10.9385 80.5825 10.9385C82.0911 10.9385 82.9962 10.2921 83.2979 8.99917H87.5853L87.4662 9.52479C86.831 12.3402 84.3142 13.7479 79.9156 13.7479Z" fill="url(#paint5_linear_2398_3167)"/>
<path d="M105.818 3.27173H99.9582L97.6002 13.4941H93.2889L95.647 3.27173H89.7638L90.4307 0.444257H106.485L105.818 3.27173Z" fill="url(#paint6_linear_2398_3167)"/>
<path d="M0.902876 28.9415C0.648219 28.9415 0.434075 28.8666 0.260445 28.7167C0.086815 28.5668 0 28.3819 0 28.1621V18.0143C0 17.7845 0.086815 17.5996 0.260445 17.4597C0.434075 17.3098 0.648219 17.2349 0.902876 17.2349H4.04558C5.04106 17.2349 5.94393 17.3798 6.75421 17.6696C7.57605 17.9494 8.28794 18.3541 8.88985 18.8837C9.49177 19.4033 9.95478 20.0179 10.2789 20.7274C10.603 21.4369 10.7651 22.2213 10.7651 23.0807C10.7651 23.9401 10.603 24.7295 10.2789 25.449C9.95478 26.1585 9.49177 26.7781 8.88985 27.3077C8.28794 27.8273 7.57605 28.232 6.75421 28.5218C5.94393 28.8016 5.04106 28.9415 4.04558 28.9415H0.902876ZM1.80575 27.5625H4.04558C5.01791 27.5625 5.87448 27.3726 6.6153 26.9929C7.3677 26.6032 7.95804 26.0736 8.38633 25.404C8.81461 24.7245 9.02876 23.9501 9.02876 23.0807C9.02876 22.2013 8.81461 21.4269 8.38633 20.7574C7.95804 20.0878 7.3677 19.5632 6.6153 19.1835C5.87448 18.8037 5.01791 18.6139 4.04558 18.6139H1.80575V27.5625Z" fill="#212121"/>
<path d="M16.3421 29.0015C15.4971 29.0015 14.7389 28.8216 14.0676 28.4619C13.3962 28.0921 12.8637 27.5975 12.4702 26.9779C12.0882 26.3484 11.8972 25.6389 11.8972 24.8494C11.8972 24.06 12.1055 23.3505 12.5222 22.721C12.9505 22.0914 13.5235 21.5968 14.2412 21.237C14.9704 20.8673 15.7865 20.6824 16.6894 20.6824C17.5922 20.6824 18.4025 20.8673 19.1202 21.237C19.8379 21.5968 20.405 22.0914 20.8218 22.721C21.25 23.3505 21.4642 24.06 21.4642 24.8494H20.787C20.787 25.6389 20.5903 26.3484 20.1967 26.9779C19.8147 27.5975 19.288 28.0921 18.6167 28.4619C17.9453 28.8216 17.1871 29.0015 16.3421 29.0015ZM16.6894 27.6524C17.2797 27.6524 17.8064 27.5325 18.2694 27.2927C18.7324 27.0429 19.097 26.7081 19.3633 26.2884C19.6295 25.8587 19.7626 25.3791 19.7626 24.8494C19.7626 24.3098 19.6295 23.8302 19.3633 23.4105C19.097 22.9808 18.7324 22.646 18.2694 22.4062C17.8064 22.1564 17.2797 22.0314 16.6894 22.0314C16.1106 22.0314 15.5839 22.1564 15.1093 22.4062C14.6463 22.646 14.2759 22.9808 13.9981 23.4105C13.7319 23.8302 13.5988 24.3098 13.5988 24.8494C13.5988 25.3791 13.7319 25.8587 13.9981 26.2884C14.2759 26.7081 14.6463 27.0429 15.1093 27.2927C15.5839 27.5325 16.1106 27.6524 16.6894 27.6524ZM20.5787 28.9565C20.324 28.9565 20.1099 28.8866 19.9362 28.7467C19.7742 28.5968 19.6932 28.4119 19.6932 28.192V25.8987L20.0231 24.3098L21.4642 24.8494V28.192C21.4642 28.4119 21.3774 28.5968 21.2037 28.7467C21.0417 28.8866 20.8333 28.9565 20.5787 28.9565Z" fill="#212121"/>
<path d="M26.5134 28.9415C25.9347 28.9415 25.4138 28.8166 24.9508 28.5668C24.4877 28.307 24.1231 27.9572 23.8569 27.5175C23.5907 27.0778 23.4575 26.5832 23.4575 26.0336V18.8837C23.4575 18.6638 23.5386 18.484 23.7006 18.3441C23.8627 18.2042 24.071 18.1342 24.3257 18.1342C24.5803 18.1342 24.7887 18.2042 24.9508 18.3441C25.1128 18.484 25.1938 18.6638 25.1938 18.8837V26.0336C25.1938 26.4333 25.3212 26.7681 25.5758 27.0379C25.8305 27.3077 26.143 27.4426 26.5134 27.4426H27.1038C27.3121 27.4426 27.4858 27.5125 27.6247 27.6524C27.7751 27.7923 27.8504 27.9722 27.8504 28.192C27.8504 28.4119 27.752 28.5918 27.5552 28.7317C27.37 28.8716 27.1269 28.9415 26.826 28.9415H26.5134ZM22.6588 22.3312C22.4158 22.3312 22.219 22.2713 22.0685 22.1514C21.918 22.0314 21.8428 21.8815 21.8428 21.7017C21.8428 21.5018 21.918 21.3419 22.0685 21.222C22.219 21.1021 22.4158 21.0421 22.6588 21.0421H26.6697C26.9128 21.0421 27.1096 21.1021 27.26 21.222C27.4105 21.3419 27.4858 21.5018 27.4858 21.7017C27.4858 21.8815 27.4105 22.0314 27.26 22.1514C27.1096 22.2713 26.9128 22.3312 26.6697 22.3312H22.6588Z" fill="#212121"/>
<path d="M32.9441 29.0015C32.0991 29.0015 31.3409 28.8216 30.6696 28.4619C29.9982 28.0921 29.4657 27.5975 29.0722 26.9779C28.6902 26.3484 28.4992 25.6389 28.4992 24.8494C28.4992 24.06 28.7075 23.3505 29.1243 22.721C29.5525 22.0914 30.1255 21.5968 30.8432 21.237C31.5724 20.8673 32.3885 20.6824 33.2914 20.6824C34.1942 20.6824 35.0045 20.8673 35.7222 21.237C36.4399 21.5968 37.0071 22.0914 37.4238 22.721C37.8521 23.3505 38.0662 24.06 38.0662 24.8494H37.389C37.389 25.6389 37.1923 26.3484 36.7987 26.9779C36.4167 27.5975 35.89 28.0921 35.2187 28.4619C34.5473 28.8216 33.7891 29.0015 32.9441 29.0015ZM33.2914 27.6524C33.8817 27.6524 34.4084 27.5325 34.8714 27.2927C35.3344 27.0429 35.699 26.7081 35.9653 26.2884C36.2315 25.8587 36.3646 25.3791 36.3646 24.8494C36.3646 24.3098 36.2315 23.8302 35.9653 23.4105C35.699 22.9808 35.3344 22.646 34.8714 22.4062C34.4084 22.1564 33.8817 22.0314 33.2914 22.0314C32.7126 22.0314 32.1859 22.1564 31.7113 22.4062C31.2483 22.646 30.8779 22.9808 30.6001 23.4105C30.3339 23.8302 30.2008 24.3098 30.2008 24.8494C30.2008 25.3791 30.3339 25.8587 30.6001 26.2884C30.8779 26.7081 31.2483 27.0429 31.7113 27.2927C32.1859 27.5325 32.7126 27.6524 33.2914 27.6524ZM37.1807 28.9565C36.926 28.9565 36.7119 28.8866 36.5383 28.7467C36.3762 28.5968 36.2952 28.4119 36.2952 28.192V25.8987L36.6251 24.3098L38.0662 24.8494V28.192C38.0662 28.4119 37.9794 28.5968 37.8058 28.7467C37.6437 28.8866 37.4353 28.9565 37.1807 28.9565Z" fill="#212121"/>
<path d="M44.435 29.0015C43.5322 29.0015 42.7219 28.8216 42.0042 28.4619C41.2865 28.0921 40.7193 27.5925 40.3026 26.9629C39.8859 26.3334 39.6718 25.6239 39.6602 24.8344V17.9993C39.6602 17.7695 39.7412 17.5846 39.9033 17.4447C40.0769 17.3048 40.2911 17.2349 40.5457 17.2349C40.8119 17.2349 41.0261 17.3048 41.1881 17.4447C41.3502 17.5846 41.4312 17.7695 41.4312 17.9993V22.0464C41.8364 21.6267 42.3225 21.297 42.8897 21.0571C43.4685 20.8073 44.0993 20.6824 44.7823 20.6824C45.6273 20.6824 46.3855 20.8673 47.0568 21.237C47.7282 21.5968 48.2549 22.0914 48.6369 22.721C49.0304 23.3405 49.2272 24.045 49.2272 24.8344C49.2272 25.6239 49.0131 26.3334 48.5848 26.9629C48.1681 27.5925 47.6009 28.0921 46.8832 28.4619C46.1655 28.8216 45.3495 29.0015 44.435 29.0015ZM44.435 27.6524C45.0254 27.6524 45.552 27.5325 46.0151 27.2927C46.4781 27.0429 46.8427 26.7031 47.1089 26.2734C47.3867 25.8437 47.5256 25.3641 47.5256 24.8344C47.5256 24.2948 47.3867 23.8152 47.1089 23.3955C46.8427 22.9758 46.4781 22.646 46.0151 22.4062C45.552 22.1564 45.0254 22.0314 44.435 22.0314C43.8563 22.0314 43.3296 22.1564 42.855 22.4062C42.392 22.646 42.0274 22.9758 41.7611 23.3955C41.4949 23.8152 41.3618 24.2948 41.3618 24.8344C41.3618 25.3641 41.4949 25.8437 41.7611 26.2734C42.0274 26.7031 42.392 27.0429 42.855 27.2927C43.3296 27.5325 43.8563 27.6524 44.435 27.6524Z" fill="#212121"/>
<path d="M54.7855 29.0015C53.9405 29.0015 53.1824 28.8216 52.511 28.4619C51.8396 28.0921 51.3072 27.5975 50.9136 26.9779C50.5316 26.3484 50.3406 25.6389 50.3406 24.8494C50.3406 24.06 50.549 23.3505 50.9657 22.721C51.394 22.0914 51.9669 21.5968 52.6846 21.237C53.4139 20.8673 54.2299 20.6824 55.1328 20.6824C56.0357 20.6824 56.846 20.8673 57.5636 21.237C58.2813 21.5968 58.8485 22.0914 59.2652 22.721C59.6935 23.3505 59.9076 24.06 59.9076 24.8494H59.2305C59.2305 25.6389 59.0337 26.3484 58.6401 26.9779C58.2581 27.5975 57.7315 28.0921 57.0601 28.4619C56.3887 28.8216 55.6305 29.0015 54.7855 29.0015ZM55.1328 27.6524C55.7231 27.6524 56.2498 27.5325 56.7128 27.2927C57.1758 27.0429 57.5405 26.7081 57.8067 26.2884C58.0729 25.8587 58.2061 25.3791 58.2061 24.8494C58.2061 24.3098 58.0729 23.8302 57.8067 23.4105C57.5405 22.9808 57.1758 22.646 56.7128 22.4062C56.2498 22.1564 55.7231 22.0314 55.1328 22.0314C54.554 22.0314 54.0274 22.1564 53.5528 22.4062C53.0898 22.646 52.7193 22.9808 52.4415 23.4105C52.1753 23.8302 52.0422 24.3098 52.0422 24.8494C52.0422 25.3791 52.1753 25.8587 52.4415 26.2884C52.7193 26.7081 53.0898 27.0429 53.5528 27.2927C54.0274 27.5325 54.554 27.6524 55.1328 27.6524ZM59.0221 28.9565C58.7675 28.9565 58.5533 28.8866 58.3797 28.7467C58.2176 28.5968 58.1366 28.4119 58.1366 28.192V25.8987L58.4665 24.3098L59.9076 24.8494V28.192C59.9076 28.4119 59.8208 28.5968 59.6472 28.7467C59.4851 28.8866 59.2768 28.9565 59.0221 28.9565Z" fill="#212121"/>
<path d="M64.9569 29.0015C64.1466 29.0015 63.3942 28.8965 62.6997 28.6867C62.0167 28.4669 61.4843 28.192 61.1023 27.8623C60.9286 27.7024 60.8534 27.5225 60.8766 27.3227C60.9113 27.1128 61.027 26.9429 61.2238 26.813C61.4553 26.6531 61.681 26.5882 61.901 26.6182C62.1325 26.6382 62.3293 26.7231 62.4913 26.873C62.6881 27.0629 63.0006 27.2427 63.4289 27.4126C63.8688 27.5725 64.3549 27.6524 64.8874 27.6524C65.5588 27.6524 66.0681 27.5575 66.4154 27.3676C66.7742 27.1778 66.9594 26.9329 66.971 26.6332C66.9826 26.3334 66.8147 26.0736 66.4674 25.8537C66.1318 25.6339 65.5125 25.454 64.6096 25.3141C63.4405 25.1142 62.5897 24.8145 62.0572 24.4147C61.5364 24.015 61.2759 23.5254 61.2759 22.9458C61.2759 22.4362 61.4495 22.0165 61.7968 21.6867C62.1441 21.3469 62.5897 21.0971 63.1338 20.9372C63.6778 20.7673 64.245 20.6824 64.8353 20.6824C65.5993 20.6824 66.2765 20.7873 66.8668 20.9972C67.4571 21.207 67.9259 21.4968 68.2732 21.8666C68.4352 22.0264 68.5105 22.1963 68.4989 22.3762C68.4874 22.5461 68.389 22.691 68.2038 22.8109C68.0185 22.9208 67.7986 22.9558 67.544 22.9158C67.2893 22.8758 67.0751 22.7859 66.9015 22.646C66.6121 22.4062 66.2996 22.2413 65.9639 22.1514C65.6282 22.0614 65.2405 22.0165 64.8006 22.0165C64.2913 22.0165 63.8572 22.0914 63.4984 22.2413C63.1511 22.3912 62.9775 22.611 62.9775 22.9008C62.9775 23.0807 63.0296 23.2456 63.1338 23.3955C63.2495 23.5354 63.4694 23.6653 63.7935 23.7852C64.1177 23.8951 64.5922 24.005 65.2173 24.115C66.0855 24.2648 66.7684 24.4547 67.2661 24.6846C67.7755 24.9144 68.1401 25.1842 68.36 25.494C68.5799 25.7938 68.6899 26.1435 68.6899 26.5432C68.6899 27.0029 68.5452 27.4176 68.2558 27.7873C67.978 28.1571 67.5613 28.4519 67.0057 28.6717C66.4617 28.8916 65.7787 29.0015 64.9569 29.0015Z" fill="#212121"/>
<path d="M74.3497 29.0015C73.389 29.0015 72.5324 28.8266 71.78 28.4768C71.0392 28.1171 70.4546 27.6275 70.0263 27.0079C69.6096 26.3783 69.4012 25.6589 69.4012 24.8494C69.4012 24.03 69.598 23.3105 69.9916 22.691C70.3967 22.0614 70.9523 21.5718 71.6584 21.222C72.3645 20.8623 73.1748 20.6824 74.0893 20.6824C74.9921 20.6824 75.7677 20.8573 76.4159 21.207C77.0641 21.5468 77.5561 22.0214 77.8918 22.631C78.239 23.2306 78.4126 23.9251 78.4126 24.7145C78.4126 24.9044 78.3374 25.0643 78.1869 25.1942C78.0364 25.3141 77.8455 25.3741 77.6139 25.3741H70.6167V24.1749H77.5619L76.85 24.5946C76.8384 24.095 76.7226 23.6503 76.5027 23.2606C76.2828 22.8609 75.9702 22.5461 75.5651 22.3162C75.16 22.0864 74.668 21.9715 74.0893 21.9715C73.4295 21.9715 72.8623 22.0964 72.3877 22.3462C71.9247 22.596 71.5716 22.9408 71.3285 23.3805C71.0855 23.8102 70.9639 24.2998 70.9639 24.8494C70.9639 25.399 71.1086 25.8887 71.398 26.3184C71.6874 26.7481 72.0867 27.0878 72.596 27.3377C73.1054 27.5875 73.6899 27.7124 74.3497 27.7124C74.7085 27.7124 75.0732 27.6574 75.4436 27.5475C75.8256 27.4276 76.1323 27.2927 76.3638 27.1428C76.5374 27.0329 76.7226 26.9779 76.9194 26.9779C77.1278 26.9679 77.3072 27.0179 77.4577 27.1278C77.6545 27.2777 77.7586 27.4426 77.7702 27.6225C77.7818 27.8023 77.6892 27.9572 77.4924 28.0871C77.0988 28.3569 76.6069 28.5768 76.0165 28.7467C75.4378 28.9165 74.8822 29.0015 74.3497 29.0015Z" fill="#212121"/>
<path d="M85.9675 29.46C85.8136 29.46 85.6833 29.4168 85.5767 29.3305C85.4819 29.2333 85.4346 29.1145 85.4346 28.9741V17.296C85.4346 17.1448 85.4819 17.026 85.5767 16.9396C85.6833 16.8533 85.8136 16.8101 85.9675 16.8101H89.5205C90.3851 16.8101 91.149 16.9828 91.8122 17.3284C92.4873 17.6739 93.0143 18.1544 93.3933 18.7699C93.7723 19.3746 93.9618 20.0711 93.9618 20.8593C93.9618 21.6476 93.7723 22.3495 93.3933 22.965C93.0143 23.5805 92.4873 24.061 91.8122 24.4065C91.149 24.7521 90.3851 24.9248 89.5205 24.9248H86.5005V28.9741C86.5005 29.1145 86.4531 29.2333 86.3583 29.3305C86.2636 29.4168 86.1333 29.46 85.9675 29.46ZM86.5005 23.953H89.5205C90.1837 23.953 90.7641 23.8234 91.2615 23.5643C91.7707 23.2943 92.1675 22.9272 92.4517 22.4629C92.7478 21.9985 92.8959 21.464 92.8959 20.8593C92.8959 20.2547 92.7478 19.7255 92.4517 19.272C92.1675 18.8077 91.7707 18.446 91.2615 18.1868C90.7641 17.9169 90.1837 17.7819 89.5205 17.7819H86.5005V23.953Z" fill="#212121"/>
<path d="M100.028 29.5572C99.0809 29.5572 98.2282 29.3629 97.4702 28.9741C96.7241 28.5746 96.1319 28.0347 95.6937 27.3544C95.2673 26.6633 95.0542 25.8913 95.0542 25.0382C95.0542 24.1744 95.2673 23.4023 95.6937 22.722C96.1319 22.0309 96.7241 21.491 97.4702 21.1023C98.2282 20.7028 99.0809 20.503 100.028 20.503C100.976 20.503 101.823 20.7028 102.569 21.1023C103.315 21.491 103.901 22.0309 104.327 22.722C104.766 23.4023 104.985 24.1744 104.985 25.0382C104.985 25.8913 104.766 26.6633 104.327 27.3544C103.901 28.0347 103.315 28.5746 102.569 28.9741C101.823 29.3629 100.976 29.5572 100.028 29.5572ZM100.028 28.6502C100.774 28.6502 101.438 28.4936 102.018 28.1805C102.61 27.8565 103.072 27.4246 103.404 26.8847C103.747 26.334 103.919 25.7131 103.919 25.022C103.919 24.3417 103.747 23.7316 103.404 23.1917C103.072 22.641 102.61 22.2091 102.018 21.896C101.438 21.572 100.774 21.4101 100.028 21.4101C99.2941 21.4101 98.6309 21.572 98.0387 21.896C97.4465 22.2091 96.9787 22.641 96.6353 23.1917C96.2918 23.7316 96.1201 24.3471 96.1201 25.0382C96.1201 25.7185 96.2918 26.334 96.6353 26.8847C96.9787 27.4246 97.4465 27.8565 98.0387 28.1805C98.6309 28.4936 99.2941 28.6502 100.028 28.6502Z" fill="#212121"/>
<path d="M107.921 24.0502C107.992 23.3591 108.199 22.749 108.543 22.2199C108.886 21.68 109.33 21.2589 109.875 20.9565C110.42 20.6542 111.024 20.503 111.687 20.503C112.137 20.503 112.486 20.5516 112.735 20.6488C112.984 20.746 113.079 20.9187 113.019 21.1671C112.984 21.3291 112.901 21.4262 112.771 21.4586C112.64 21.491 112.48 21.4964 112.291 21.4748C112.113 21.4424 111.912 21.4262 111.687 21.4262C111.095 21.4262 110.568 21.5396 110.106 21.7664C109.644 21.9931 109.283 22.3063 109.022 22.7058C108.762 23.0946 108.631 23.5427 108.631 24.0502H107.921ZM108.098 29.46C107.944 29.46 107.814 29.4168 107.708 29.3305C107.613 29.2333 107.565 29.1145 107.565 28.9741V21.0861C107.565 20.9349 107.613 20.8162 107.708 20.7298C107.814 20.6434 107.944 20.6002 108.098 20.6002C108.264 20.6002 108.394 20.6434 108.489 20.7298C108.584 20.8162 108.631 20.9349 108.631 21.0861V28.9741C108.631 29.1145 108.584 29.2333 108.489 29.3305C108.394 29.4168 108.264 29.46 108.098 29.46Z" fill="#212121"/>
<path d="M119.255 29.46C118.604 29.4492 118.024 29.3143 117.514 29.0551C117.005 28.7852 116.608 28.418 116.324 27.9537C116.04 27.4786 115.898 26.9441 115.898 26.3502V18.284C115.898 18.1328 115.945 18.014 116.04 17.9277C116.146 17.8305 116.277 17.7819 116.431 17.7819C116.597 17.7819 116.727 17.8305 116.822 17.9277C116.928 18.014 116.981 18.1328 116.981 18.284V26.3502C116.981 26.9765 117.195 27.4894 117.621 27.8889C118.047 28.2776 118.598 28.472 119.273 28.472H119.664C119.83 28.472 119.96 28.5206 120.055 28.6178C120.161 28.7042 120.215 28.8229 120.215 28.9741C120.215 29.1145 120.161 29.2333 120.055 29.3305C119.96 29.4168 119.83 29.46 119.664 29.46H119.255ZM114.512 21.7988C114.37 21.7988 114.252 21.761 114.157 21.6854C114.074 21.599 114.032 21.491 114.032 21.3615C114.032 21.2319 114.074 21.1293 114.157 21.0537C114.252 20.9673 114.37 20.9241 114.512 20.9241H119.326C119.469 20.9241 119.581 20.9673 119.664 21.0537C119.759 21.1293 119.806 21.2319 119.806 21.3615C119.806 21.491 119.759 21.599 119.664 21.6854C119.581 21.761 119.469 21.7988 119.326 21.7988H114.512Z" fill="#212121"/>
<path d="M126.803 29.5572C125.856 29.5572 125.003 29.3629 124.245 28.9741C123.499 28.5746 122.907 28.0347 122.469 27.3544C122.042 26.6633 121.829 25.8913 121.829 25.0382C121.829 24.1744 122.042 23.4023 122.469 22.722C122.907 22.0309 123.499 21.491 124.245 21.1023C125.003 20.7028 125.856 20.503 126.803 20.503C127.751 20.503 128.598 20.7028 129.344 21.1023C130.09 21.491 130.676 22.0309 131.102 22.722C131.541 23.4023 131.76 24.1744 131.76 25.0382L131.316 25.6861C131.316 26.4204 131.114 27.0791 130.712 27.6622C130.321 28.2452 129.788 28.7096 129.113 29.0551C128.438 29.3898 127.668 29.5572 126.803 29.5572ZM126.803 28.6502C127.549 28.6502 128.213 28.4936 128.793 28.1805C129.385 27.8565 129.847 27.4246 130.179 26.8847C130.522 26.334 130.694 25.7185 130.694 25.0382C130.694 24.3471 130.522 23.7316 130.179 23.1917C129.847 22.641 129.385 22.2091 128.793 21.896C128.213 21.572 127.549 21.4101 126.803 21.4101C126.069 21.4101 125.406 21.572 124.814 21.896C124.221 22.2091 123.754 22.641 123.41 23.1917C123.067 23.7316 122.895 24.3471 122.895 25.0382C122.895 25.7185 123.067 26.334 123.41 26.8847C123.754 27.4246 124.221 27.8565 124.814 28.1805C125.406 28.4936 126.069 28.6502 126.803 28.6502ZM131.244 29.46C131.079 29.46 130.942 29.4168 130.836 29.3305C130.741 29.2333 130.694 29.1145 130.694 28.9741V26.01L131.031 25.0382H131.76V28.9741C131.76 29.1145 131.712 29.2333 131.618 29.3305C131.523 29.4168 131.398 29.46 131.244 29.46Z" fill="#212121"/>
<path d="M136.294 29.46C135.844 29.46 135.442 29.3467 135.086 29.1199C134.743 28.8931 134.471 28.58 134.269 28.1805C134.08 27.7809 133.985 27.3166 133.985 26.7875V17.296C133.985 17.1448 134.032 17.026 134.127 16.9396C134.234 16.8533 134.364 16.8101 134.518 16.8101C134.684 16.8101 134.814 16.8533 134.909 16.9396C135.004 17.026 135.051 17.1448 135.051 17.296V26.7875C135.051 27.2842 135.163 27.6945 135.388 28.0185C135.625 28.3316 135.927 28.4882 136.294 28.4882H136.739C136.869 28.4882 136.975 28.5314 137.058 28.6178C137.141 28.7042 137.183 28.8229 137.183 28.9741C137.183 29.1145 137.135 29.2333 137.041 29.3305C136.946 29.4168 136.816 29.46 136.65 29.46H136.294Z" fill="#212121"/>
<defs>
<linearGradient id="paint0_linear_2398_3167" x1="19.5" y1="6.93733" x2="84" y2="6.93732" gradientUnits="userSpaceOnUse">
<stop stop-color="#FF4538"/>
<stop offset="1" stop-color="#1A83FB"/>
</linearGradient>
<linearGradient id="paint1_linear_2398_3167" x1="19.5" y1="6.93733" x2="84" y2="6.93732" gradientUnits="userSpaceOnUse">
<stop stop-color="#FF4538"/>
<stop offset="1" stop-color="#1A83FB"/>
</linearGradient>
<linearGradient id="paint2_linear_2398_3167" x1="19.5" y1="6.93733" x2="84" y2="6.93732" gradientUnits="userSpaceOnUse">
<stop stop-color="#FF4538"/>
<stop offset="1" stop-color="#1A83FB"/>
</linearGradient>
<linearGradient id="paint3_linear_2398_3167" x1="19.5" y1="6.93733" x2="84" y2="6.93732" gradientUnits="userSpaceOnUse">
<stop stop-color="#FF4538"/>
<stop offset="1" stop-color="#1A83FB"/>
</linearGradient>
<linearGradient id="paint4_linear_2398_3167" x1="19.5" y1="6.93733" x2="84" y2="6.93732" gradientUnits="userSpaceOnUse">
<stop stop-color="#FF4538"/>
<stop offset="1" stop-color="#1A83FB"/>
</linearGradient>
<linearGradient id="paint5_linear_2398_3167" x1="19.5" y1="6.93733" x2="84" y2="6.93732" gradientUnits="userSpaceOnUse">
<stop stop-color="#FF4538"/>
<stop offset="1" stop-color="#1A83FB"/>
</linearGradient>
<linearGradient id="paint6_linear_2398_3167" x1="19.5" y1="6.93733" x2="84" y2="6.93732" gradientUnits="userSpaceOnUse">
<stop stop-color="#FF4538"/>
<stop offset="1" stop-color="#1A83FB"/>
</linearGradient>
</defs>
</svg>
